<?xml version="1.0" encoding="UTF-8"?><svg id="Camada_2" xmlns="http://www.w3.org/2000/svg" viewBox="0 0 854.09 327.53"><defs><style>.cls-1{fill:#004b8b;}</style></defs><g id="Camada_1-2"><path class="cls-1" d="m10.21,3.72c2.53-4.43,1.29,16.24,2.55,0,1.68-2.68,4.18-2.24,7.43,0,3.25,3.97,7.26-4.86,11.97,0h765.54c6.02,0,14.52-8.37,16.51,0,5.67,11.64.4-1.42,13.27,0,15.67,12.35,5.04-8.16,9.78,0,.06,4.17,6.33,7.46,6.05,0-.57,5-8.01-6.29,2.07,0-4.56,1.52-4.83-8.8,0,8.79-10.91,7.05-4.49-7.53,0,23.86-4.85,13.96-4.85,11.7,0,35.17-6.15,2.29-1.56,28.96,0,42.7-22.15,35.87-28.35,24.96,0,46.47-29.45,30.18-2.85,12.49,0,46.47-16.58,44.95,16.95,33.18,0,42.7-1.23,13.59,16.32,40.17,0,35.17,1.68,19.59,12,8.35,0,23.86-10.18,4.41-8.43,20.65,0,8.79,2.67-5.99,19.43-.83-2.23,0-11.07-2.71-.04,6.08-6.49,0,2.89-2.78,2.64,8.91-10.49,0-.28-15.75-8.88,0-14.21,0H32.16c-4.71,0-7.47,1.68-11.97,0,1.62,6.74-13.42,18.23-7.43,0-2.77-3.6,7.83,4.67-2.55,0,7.3,5.36,5.54,6.71,0-8.79-4.05,4.25-16.03-.64,0-12.58-9.61,13.26,10.03-4.14,0-11.28-6.55-5.8,12.43-18.55,0-19.01,1.91,24-4.22-21.67,0-16.16,1.76-21.71,6.85-39.79,0-33.11,12.7-10.31-18.08,2.8,0-9.59-15.69-32.4-11.36-28.94,0-22.35,13-7,5.32-19.09,0-24.12,18.74-3.15.85-4.45,0-21.57,7.7-4.35-9.82-20.92,0-24.91,8.5-4.63-12.25-25.04,0-26.93-5.15-.72,6.06-25.8,0-15.77,2.44,25.24,6.77,9.11,0-14.13-15.36.54-7.93-27.21,0-21.03,2.74-10.92.09-8.11,0-10.84,2.6-17.98-2.45-16.57,0-13.03,3.22-13.81,1.15-14.36,0-8.79Z"/></g></svg>