<?xml version="1.0" encoding="UTF-8"?><svg id="Camada_2" xmlns="http://www.w3.org/2000/svg" viewBox="0 0 821.54 192.92"><defs><style>.cls-1{fill:#2875c1;}</style></defs><g id="Camada_1-2"><path class="cls-1" d="m9.82,2.19c2.43-2.61,1.24,9.57,2.45,0,1.62-1.58,4.02-1.32,7.15,0,3.13,2.34,6.98-2.87,11.51,0h736.37c5.79,0,13.97-4.93,15.88,0,5.45,6.86.39-.84,12.76,0,15.07,7.27,4.84-4.81,9.41,0,.06,2.46,6.09,4.39,5.82,0-.55,2.94-7.71-3.7,1.99,0-4.38.89-4.64-5.18,0,5.18-10.49,4.15-4.32-4.44,0,14.06-4.67,8.22-4.67,6.89,0,20.71-5.92,1.35-1.51,17.06,0,25.15-21.3,21.13-27.27,14.7,0,27.37-28.33,17.78-2.74,7.36,0,27.37-15.94,26.48,16.3,19.54,0,25.15-1.18,8.01,15.7,23.66,0,20.71,1.62,11.54,11.54,4.92,0,14.06-9.79,2.6-8.11,12.16,0,5.18,2.56-3.53,18.69-.49-2.14,0-10.65-1.6-.04,3.58-6.25,0,2.78-1.64,2.54,5.25-10.09,0-.27-9.28-8.55,0-13.67,0H30.93c-4.53,0-7.19.99-11.51,0,1.55,3.97-12.91,10.73-7.15,0-2.66-2.12,7.53,2.75-2.45,0,7.02,3.16,5.33,3.95,0-5.18-3.9,2.51-15.41-.37,0-7.41-9.24,7.81,9.65-2.44,0-6.64-6.3-3.42,11.96-10.93,0-11.19,1.84,14.14-4.05-12.76,0-9.52,1.69-12.79,6.59-23.43,0-19.5,12.22-6.07-17.4,1.65,0-5.65-15.09-19.09-10.93-17.05,0-13.17,12.5-4.12,5.11-11.25,0-14.21,18.03-1.85.82-2.62,0-12.7,7.41-2.56-9.44-12.32,0-14.67,8.17-2.73-11.78-14.75,0-15.86-4.95-.42,5.83-15.19,0-9.29,2.35,14.87,6.51,5.37,0-8.33-14.77.32-7.63-16.03,0-12.39,2.63-6.43.08-4.78,0-6.38,2.5-10.59-2.36-9.76,0-7.67,3.1-8.14,1.1-8.46,0-5.18Z"/></g></svg>